<svg xmlns="http://www.w3.org/2000/svg" width="992" height="732" fill="none"><path fill="#AD6F44" d="M921 529a14 14 0 1 0 0-29 14 14 0 0 0 0 29Z"/><path fill="#FFCC80" d="M949 108a12 12 0 1 0 0-24 12 12 0 0 0 0 24Z"/><path fill="#FA2" d="M865 43c3-3 1-10-4-17a7 7 0 0 1 0-8c5-7 7-14 4-17-3-2-10-1-17 4a7 7 0 0 1-8 0c-7-5-14-6-16-4-3 3-2 10 3 17a7 7 0 0 1 0 8c-5 7-6 14-3 17 2 2 9 1 16-4a7 7 0 0 1 8 0c7 5 14 6 17 4Z"/><path fill="#D17718" d="M24 610c3 0 6-5 7-12a5 5 0 0 1 4-5c8-1 12-4 12-7s-4-6-12-8a5 5 0 0 1-4-4c-1-7-4-12-7-12s-6 5-8 12a5 5 0 0 1-4 4c-7 2-12 5-12 8s5 6 12 7a5 5 0 0 1 4 5c2 7 5 12 8 12Z"/><path fill="#FFCC80" d="M88 127a19 19 0 1 0 0-39 19 19 0 0 0 0 39Z"/><path fill="#6B0C10" d="M56 225a13 13 0 1 0 0-25 13 13 0 0 0 0 25Z"/><path fill="#FBEAD0" d="M869 577c0 82-167 148-374 148s-374-66-374-148c0-33 27-64 72-88a737 737 0 0 1 302-61c35 0 70 2 105 6 121 14 217 52 253 100 11 13 16 28 16 43Z"/><path fill="#650000" d="M495 726c-100 0-194-15-265-44-71-28-110-65-110-105 0-33 25-63 73-89l34-16c71-29 166-45 268-45 35 0 70 2 105 6 122 14 217 52 254 100 11 14 16 29 16 44 0 40-39 77-110 105-71 29-165 44-265 44Zm0-297a734 734 0 0 0-301 60c-47 26-72 56-72 88 0 81 167 147 373 147s373-66 373-147c0-15-5-29-15-43-18-23-51-45-95-62-44-18-99-30-159-37-34-4-69-6-104-6Z"/><path fill="#fff" d="M708 454a750 750 0 0 0-194-21 737 737 0 0 0-301 61c-46 24-73 55-73 88 0 50 64 95 161 122-108-26-180-73-180-127 0-33 27-64 72-88a737 737 0 0 1 302-61 912 912 0 0 1 213 26Z" opacity=".6"/><path fill="#650000" d="M495 732c-101 0-196-16-267-44-74-29-114-69-114-111 0-43 40-83 114-112 71-28 166-44 267-44s196 16 267 44c73 29 114 69 114 112 0 42-41 82-114 111-71 28-166 44-267 44Zm0-297c-99 0-192 15-262 43-67 26-105 62-105 99 0 36 38 72 105 98 70 28 163 43 262 43s192-15 262-43c67-26 105-62 105-98 0-37-38-73-105-99-70-28-163-43-262-43Z"/><path fill="#650000" d="M494 696c-73 0-142-11-193-31-54-20-83-47-83-77s29-57 83-78c51-19 120-30 193-30s141 11 193 30c53 21 83 48 83 78s-30 57-83 77c-52 20-120 31-193 31Zm0-206c-72 0-139 11-190 30-48 18-76 43-76 68s28 49 76 68c51 19 118 30 190 30s139-11 190-30c48-19 76-43 76-68s-28-50-76-68c-51-19-118-30-190-30Z"/><path fill="#650000" d="m853 534-88 48a403 403 0 0 1-292 51c6 14-19 34-64 40l43-45c-37-11-64-27-77-44l225-150c121 14 217 52 253 100Z" opacity=".3"/><path fill="#FA2" d="M932 403a222 222 0 0 1-54 54l-1 1a182 182 0 0 1-126 29l4-5 36-54c18 0 35-5 50-14a124 124 0 0 0 29-23c44-47 57-124 3-141h-2c-8-2-17-3-27-3l3-57a105 105 0 0 1 81 24c43 36 58 107 4 189Z"/><path fill="#fff" d="M884 390a142 142 0 0 1-28 23c-15 8-31 14-49 14 12-2 24-7 34-13a123 123 0 0 0 29-23c44-47 57-124 3-141h-2l-3-1c6-1 12-2 17-1l2 1c54 17 41 94-3 141Z" opacity=".6"/><g opacity=".6"><path fill="#fff" d="M807 427h-2 2Z"/><path fill="#650000" d="m804 428 1-2h2v2h-3Z"/></g><path fill="#FA2" d="M847 185c0 566-704 566-704 0 0-59 157-106 352-106 194 0 352 47 352 106Z"/><path fill="#FBEAD0" d="m842 250-3 22c0 184-690 184-690 0l-3-29c34 164 646 166 696 7Z"/><path fill="#650000" d="M207 205c96-84 504-71 578 5 32-38-34-63-34-63a935 935 0 0 0-513 4s-61 29-31 54Z" opacity=".3"/><path fill="#fff" d="M161 193c0 203 90 334 207 391-125-53-225-185-225-399 0-59 157-106 352-106 128 0 241 21 302 52-64-27-167-44-284-44-195 0-352 47-352 106Z" opacity=".6"/><path fill="#F5B945" d="m145 229 1 14-1-14Z"/><path fill="#650000" d="m146 243-2-14h2l1 14h-1Z"/><path fill="#650000" d="M495 616c-94 0-182-38-247-108a463 463 0 0 1-112-323c0-32 38-61 108-82 67-20 156-31 251-31s184 11 251 31c70 21 108 50 108 82 0 133-39 245-112 323a335 335 0 0 1-247 108Zm0-530c-207 0-345 51-345 99 0 287 179 418 345 418s345-131 345-418c0-48-138-99-345-99Z"/><path fill="#AD6F44" d="M785 210c-3 4-8 7-13 11a588 588 0 0 1-302 50c-114-2-210-22-252-50l-10-8-4-4c24-27 97-49 191-58 31-3 64-4 99-4 142 0 260 27 291 63Z"/><path fill="#650000" d="M785 215a5 5 0 0 1-4-2c-31-36-151-61-287-61-132 0-252 24-285 59a5 5 0 0 1-9 1 5 5 0 0 1 0-7c34-37 155-63 294-63 141 0 262 26 295 64a5 5 0 0 1-4 9Z"/><path fill="#fff" d="M327 311c-33-6-58-13-76-19-16-5-31 9-27 25 8 30 20 71 36 101a48 48 0 0 0 36 25l48 6c13 2 24-10 21-23-5-25-8-53-7-77a37 37 0 0 0-31-38ZM377 546c-34-13-59-41-72-59-5-7 0-16 8-15l42 5a26 26 0 0 1 23 19l10 39c2 7-5 14-11 11Z" opacity=".3"/><path fill="#650000" d="m776 495-26-1a7 7 0 0 1 2-14c70 9 132-20 175-81 37-57 43-114 17-157a97 97 0 0 0-96-46 7 7 0 0 1-2-13c44-6 86 14 109 52 14 22 20 48 18 76-2 31-14 63-35 96-41 58-98 88-162 88Z"/><path fill="#BE9577" d="M536 254c-21 3-37 11-41 21-4-10-20-18-41-21-59-9-110-18-105-54 16-44 128-46 146-4 18-42 130-40 146 4 5 36-46 45-105 54Z"/><path fill="#650000" d="M792 435h-1a7 7 0 1 1 0-14c43 1 76-32 94-62 18-31 22-65 10-84-9-15-26-22-51-21a7 7 0 1 1 0-14c37-1 54 14 62 28 15 24 11 62-9 98-20 33-57 69-105 69Z"/><path fill="#FDFFFE" d="M495 269c10-23 80-28 118-47 10-5 16-13 13-22-7-29-102-35-131-4-29-31-124-25-131 4-3 9 3 17 13 22 38 19 108 24 118 47Z"/><path fill="#FCC59C" d="M494 208c-8-6-16-9-26-12a108 108 0 0 0-54 0l-12 5-5 3v3l1 1 2 2 6 4 13 5 26 9a271 271 0 0 1 39 18c4 2 8 5 11 9l-12-7-13-6-27-8a563 563 0 0 1-47-17l-4-3-3-4v-6l2-5 3-3 4-2 14-5a100 100 0 0 1 58 4c9 3 17 8 24 15Z"/><path fill="#FCC59C" d="M495 208c7-7 15-12 24-15a98 98 0 0 1 58-4 57 57 0 0 1 17 7l4 3 2 5-1 6c0 2-1 3-3 4l-3 3-7 4-13 5-27 8-27 8-13 6c-5 2-9 4-12 7 3-4 7-7 11-9 3-3 8-5 12-7l27-11 26-9a123 123 0 0 0 19-9l2-2 1-1v-1l-1-2-4-3-12-5a110 110 0 0 0-55 0c-9 3-17 6-25 12ZM494 216a66 66 0 0 0-30-9c-5-1-11-1-16 1l-3 1-2 2c-1 2 1 4 3 5 3 3 8 5 12 7l13 6a208 208 0 0 1 19 11l3 2 1 3-2-2-3-3-6-3-13-6-13-5-13-7c-1-1-3-2-3-4l-1-1v-4l3-3 5-2c5-2 11-2 16-1a65 65 0 0 1 30 12Z"/><path fill="#FCC59C" d="M494 216a58 58 0 0 1 31-12c5-1 11-1 16 1l4 2c2 0 3 1 4 3v4l-1 1-3 4-13 7a424 424 0 0 1-33 14l-3 3-2 2 2-3 3-2 6-4 13-7 13-6 12-7c2-1 4-3 3-5l-2-2-4-1c-4-2-10-2-15-1a63 63 0 0 0-16 2l-15 7ZM428 200l-5 4v4l4 4 5 4-6-2-6-4-1-5a5 5 0 0 1 3-3l6-2Z"/><path fill="#650000" d="m743 143 23 8 5 3 6 3 10 8 8 10a29 29 0 0 1 2 27l-8 11 1-3c1 1 0 2-1 3-4 5-9 9-15 13l-8 5-9 4a520 520 0 0 1-180 39l-37 2h-18l-18 1a999 999 0 0 1-220-24l-9-2-9-3c-6-1-11-4-17-6l-9-4-4-1-4-3-5-2-4-2-8-5 3 1-3-1a92 92 0 0 1-11-10l-4-3h1l-1-1v1l-6-11a27 27 0 0 1 1-24l7-9c5-5 12-10 18-13a143 143 0 0 1 21-9 1 1 0 0 1 0 1l-19 11c-6 4-11 9-15 14-5 5-8 11-7 17 0 6 3 12 7 17v-1 1-1 1l3 3 4 3 7 5-3-1 3 1c20 12 43 20 66 26s47 11 71 14c48 7 97 10 146 10l18-1h18l36-3a836 836 0 0 0 143-25l17-6 9-3 8-4 8-4 7-4 13-11-1 4 1-4c5-5 9-11 8-17l-2-9-6-9-4-4-5-3a158 158 0 0 0-29-20 1 1 0 0 1-1 0h1a1 1 0 0 1 0-1Z"/><path fill="#BE9577" d="M649 186a32 32 0 0 1 17 12c3 3 4 7 4 10l-2 12c-4 6-10 11-16 14s-12 6-19 7l16-12c4-4 9-8 11-13 2-2 2-5 3-7l-2-8-12-15ZM337 186c-4 5-9 10-11 15l-2 8 2 7c3 5 7 9 12 13l15 12c-6-1-13-4-18-7-6-3-12-8-16-14-2-4-3-8-2-12 0-3 1-7 4-10 2-3 4-6 7-7l9-5ZM732 209c8 0 13-2 13-5 0-2-5-5-13-5-7 0-12 3-12 5 0 3 5 5 12 5ZM251 213c7 0 13-3 13-5 0-3-6-5-13-5s-13 2-13 5c0 2 6 5 13 5ZM721 224c5 0 9-2 9-3 0-2-4-3-9-3-4 0-8 1-8 3 0 1 4 3 8 3ZM276 197c5 0 8-1 8-3 0-1-3-3-8-3s-8 2-8 3c0 2 3 3 8 3ZM706 211l5-1c0-1-2-2-5-2l-4 2 4 1ZM290 213l-6 2c-3 0-5-1-5-2s2-2 5-2c4 0 6 1 6 2Z"/><path fill="#650000" d="m425 597 19 3c177 18 365-108 384-378-17 23-54 49-129 74a26 26 0 0 0-19 26c5 163-87 251-255 275Z" opacity=".3"/><path fill="#792937" d="M470 271c-114-2-210-22-252-50l-10-8-4-4c24-27 97-49 191-58l1 1c-173 53-112 91 74 119Z" opacity=".3"/><path fill="#650000" d="M928 214c-24-2-44 13-57 36-8-2-17-3-27-3l3-57a105 105 0 0 1 81 24ZM897 442c-6 6-12 11-19 15l-1 1a182 182 0 0 1-126 29l4-5 36-54c18 0 35-5 50-14l18-13c8 20 20 36 38 41ZM514 690h-8C78 666 193 489 193 489c11-6 23-12 34-16 22 30 47 55 76 74-92 71-1 116 211 143Z" opacity=".3"/><path fill="#AD6F44" d="M233 655c-28-12-35-59-14-104 19-43 55-69 83-61l4 2h1c109 45 41 215-74 163Z"/><path fill="#650000" d="M233 655c-10-4-17-13-21-24 90 32 147-72 106-134 93 51 26 208-85 158Z" opacity=".3"/><path fill="#fff" d="M351 529c-9-10-21-19-37-25-3-2-8 0-9 3l-68 143-8-6 68-143 5-11 1 1a28 28 0 0 1 4 1c21 9 36 22 44 37Z" opacity=".6"/><path fill="#fff" d="m302 490-5 11c-25 2-54 26-70 62-14 31-15 64-5 85-19-19-21-59-3-97 19-43 55-69 83-61Z" opacity=".6"/><path fill="#650000" d="M275 670c-15 0-30-3-45-10s-25-22-28-44c-3-21 1-45 12-68 10-22 25-41 42-53 18-12 37-15 52-9 33 14 54 39 59 72 5 35-11 74-40 95a86 86 0 0 1-52 17Zm-40-20c31 14 62 12 86-6 25-19 39-53 35-85a77 77 0 0 0-52-62c-12-5-27-3-41 7-16 11-30 28-39 49-19 42-14 86 11 97Z"/><path fill="#650000" d="M247 663c-5 0-11-1-16-4a5 5 0 1 1 3-8c12 5 27 3 42-8 16-10 30-28 40-49 9-21 13-43 10-62-2-18-10-31-22-36a5 5 0 0 1 4-9c15 7 24 23 27 44s-1 44-11 67c-10 22-25 41-42 53-12 8-24 12-35 12Z"/><path fill="#650000" d="M226 656a5 5 0 0 1-4-7l76-161a5 5 0 1 1 8 4l-76 161a5 5 0 0 1-4 3Z"/><path fill="#AD6F44" d="M292 604c-4-27 29-53 72-59 42-6 79 10 85 35a31 31 0 0 1 1 5c17 103-144 131-158 19Z"/><path fill="#650000" d="M292 604c-2-9 1-18 8-27 18 84 124 79 151 18 6 95-145 117-159 9Z" opacity=".3"/><path fill="#fff" d="M443 636c3-12 4-25 2-40-1-4-4-6-8-6l-139 16v-9l141-16 10-1 1 1a25 25 0 0 1 0 4c4 20 0 37-7 51Z" opacity=".6"/><path fill="#fff" d="m449 580-10 1c-13-18-45-28-80-24-31 4-56 18-67 36 6-23 35-43 72-48 42-6 79 10 85 35Z" opacity=".6"/><path fill="#650000" d="M370 682c-11 0-22-2-33-6-28-11-46-37-51-71-4-30 30-59 78-66 22-3 43 0 61 8s29 21 31 36c5 31-4 59-27 78a93 93 0 0 1-59 21Zm-73-78c4 30 20 52 45 61 26 11 58 5 79-12 20-17 29-41 24-69h-1c-1-11-10-21-24-27-15-7-35-9-55-6-40 5-71 29-68 53Z"/><path fill="#650000" d="M360 648c-15 0-30-3-42-8-18-8-28-21-30-35a4 4 0 0 1 8-1c1 11 10 22 25 28 16 7 35 10 56 7 41-6 72-30 69-55a4 4 0 0 1 8-1c4 29-30 58-76 64l-18 1Z"/><path fill="#650000" d="M292 602a4 4 0 1 1-1-9l158-17a4 4 0 0 1 3 6 4 4 0 0 1-2 2l-158 17v1Z"/></svg>
